<mxfile host="app.diagrams.net" agent="Mozilla/5.0 (Macintosh; Intel Mac OS X 10_15_7) AppleWebKit/537.36 (KHTML, like Gecko) Chrome/128.0.0.0 Safari/537.36" version="24.7.7">
  <diagram name="Page-1" id="ZqUKkuK56UTG8_z5bdtf">
    <mxGraphModel>
      <root>
        <mxCell id="0" />
        <mxCell id="1" parent="0" />
        <mxCell id="2" value="User" style="whiteSpace=wrap;strokeWidth=2;" vertex="1" parent="1">
          <mxGeometry x="257" width="47" height="34" as="geometry" />
        </mxCell>
        <mxCell id="3" value="Django REST Framework" style="rounded=1;absoluteArcSize=1;arcSize=14;whiteSpace=wrap;strokeWidth=2;" vertex="1" parent="1">
          <mxGeometry x="186" y="103" width="188" height="34" as="geometry" />
        </mxCell>
        <mxCell id="4" value="Database" style="rhombus;strokeWidth=2;whiteSpace=wrap;" vertex="1" parent="1">
          <mxGeometry x="81" y="206" width="115" height="115" as="geometry" />
        </mxCell>
        <mxCell id="5" value="React Frontend" style="whiteSpace=wrap;strokeWidth=2;" vertex="1" parent="1">
          <mxGeometry x="349" y="246" width="125" height="34" as="geometry" />
        </mxCell>
        <mxCell id="6" value="Sends Request" style="curved=1;startArrow=none;endArrow=block;exitX=0.04;exitY=1;entryX=0.39;entryY=0;" edge="1" parent="1" source="2" target="3">
          <mxGeometry relative="1" as="geometry">
            <Array as="points">
              <mxPoint x="217" y="69" />
            </Array>
          </mxGeometry>
        </mxCell>
        <mxCell id="7" value="Processes Request" style="curved=1;startArrow=none;endArrow=block;exitX=0.12;exitY=1;entryX=0.1;entryY=0;" edge="1" parent="1" source="3" target="4">
          <mxGeometry relative="1" as="geometry">
            <Array as="points">
              <mxPoint x="65" y="172" />
            </Array>
          </mxGeometry>
        </mxCell>
        <mxCell id="8" value="Returns Response" style="curved=1;startArrow=none;endArrow=block;exitX=0.89;exitY=0;entryX=0.38;entryY=1;" edge="1" parent="1" source="4" target="3">
          <mxGeometry relative="1" as="geometry">
            <Array as="points">
              <mxPoint x="211" y="172" />
            </Array>
          </mxGeometry>
        </mxCell>
        <mxCell id="9" value="Sends Response" style="curved=1;startArrow=none;endArrow=block;exitX=0.61;exitY=0;entryX=0.93;entryY=1;" edge="1" parent="1" source="3" target="2">
          <mxGeometry relative="1" as="geometry">
            <Array as="points">
              <mxPoint x="343" y="69" />
            </Array>
          </mxGeometry>
        </mxCell>
        <mxCell id="10" value="Sends Response" style="curved=1;startArrow=none;endArrow=block;exitX=0.62;exitY=1;entryX=0.41;entryY=0.01;" edge="1" parent="1" source="3" target="5">
          <mxGeometry relative="1" as="geometry">
            <Array as="points">
              <mxPoint x="349" y="172" />
            </Array>
          </mxGeometry>
        </mxCell>
        <mxCell id="11" value="Sends Request" style="curved=1;startArrow=none;endArrow=block;exitX=0.6;exitY=0.01;entryX=0.84;entryY=1;" edge="1" parent="1" source="5" target="3">
          <mxGeometry relative="1" as="geometry">
            <Array as="points">
              <mxPoint x="475" y="172" />
            </Array>
          </mxGeometry>
        </mxCell>
      </root>
    </mxGraphModel>
  </diagram>
</mxfile>
